<?xml version="1.0" standalone="no"?>
<!DOCTYPE svg PUBLIC "-//W3C//DTD SVG 1.1//EN" "http://www.w3.org/Graphics/SVG/1.1/DTD/svg11.dtd" >
<svg xmlns="http://www.w3.org/2000/svg" xmlns:xlink="http://www.w3.org/1999/xlink" version="1.1">
<metadata></metadata>
<defs>
<font id="denton_testbold" horiz-adv-x="1062" >
<font-face units-per-em="2048" ascent="1638" descent="-410" />
<missing-glyph horiz-adv-x="393" />
<glyph horiz-adv-x="0" />
<glyph horiz-adv-x="682" />
<glyph unicode=" "  horiz-adv-x="393" />
<glyph unicode="&#x09;" horiz-adv-x="393" />
<glyph unicode="&#xa0;" horiz-adv-x="393" />
<glyph unicode="," horiz-adv-x="503" d="M63 150q0 76 53.5 127t129.5 51q82 0 138 -64.5t56 -165.5q0 -117 -86 -218t-243 -144l-2 41q79 33 116 76t37 81q0 47 -55 60q-59 12 -101.5 54t-42.5 102z" />
<glyph unicode="-" horiz-adv-x="921" d="M68 606v70h786v-70h-786z" />
<glyph unicode="." horiz-adv-x="481" d="M63 158q0 74 52.5 126t126.5 52t126 -52.5t52 -125.5q0 -74 -52.5 -126t-125.5 -52q-74 0 -126.5 52t-52.5 126z" />
<glyph unicode="0" horiz-adv-x="1282" d="M53 739q0 219 76 392.5t210 269.5t302 96t302 -97t210 -269.5t76 -391.5q0 -223 -76 -397t-210 -270.5t-302 -96.5t-302 96.5t-210 270.5t-76 397zM395 735q0 -282 54.5 -487t191.5 -205q135 0 189.5 208t54.5 490q0 276 -55.5 481t-188.5 205q-137 0 -191.5 -207.5 t-54.5 -484.5z" />
<glyph unicode="1" horiz-adv-x="720" d="M-2 1206v33q139 41 232.5 89t242.5 147h88v-1250q0 -100 46 -139t124 -51v-35h-655v35q78 12 124 50t46 140v981h-248z" />
<glyph unicode="2" horiz-adv-x="1128" d="M45 2v70l266 290q365 414 365 685q0 129 -70.5 195.5t-177.5 66.5q-96 0 -186 -56.5t-150 -171.5l-33 6q59 197 200.5 302.5t320.5 107.5q125 0 223 -48t152.5 -134t54.5 -193q0 -119 -69 -233.5t-174 -219t-296 -272.5l-33 -28l-108 -95h508q102 0 152 44t83 116l33 -8 l-43 -166l-68 -258h-950z" />
<glyph unicode="3" horiz-adv-x="1075" d="M20 389l35 6q72 -125 164 -181t189 -56q133 0 217 93t84 232q0 125 -68 206t-195 81q-43 0 -84 -8l-20 31l381 409h-416q-100 0 -140 -47t-54 -125l-35 2l4 170l6 273h940v-54l-563 -600q68 12 129 13q135 0 232.5 -53.5t146.5 -143.5t49 -199q0 -131 -67.5 -235.5 t-181.5 -163.5t-247 -59q-178 0 -316 105t-190 304z" />
<glyph unicode="4" horiz-adv-x="1146" d="M8 334v102l647 1039h275v-955h200v-186h-200v-109q0 -102 46 -140t124 -50v-35h-660v35q78 12 125 50t47 140v109h-604zM143 520h469v744z" />
<glyph unicode="5" horiz-adv-x="1017" d="M-2 340l37 6q61 -109 151 -166t189 -57q137 0 219 108.5t82 274.5q0 150 -75 236.5t-202 86.5q-129 0 -268 -108l-61 31l114 723h795l-47 -273h-719l-70 -414q86 80 191.5 117t210.5 37q129 -2 230.5 -53t158.5 -150.5t57 -238.5q0 -147 -64.5 -266t-177 -186.5 t-249.5 -67.5q-166 0 -304.5 98t-197.5 262z" />
<glyph unicode="6" horiz-adv-x="1179" d="M45 618q0 258 119 454t316.5 304.5t426.5 114.5l15 -33q-463 -117 -531 -684q72 78 162 117t184 39q115 0 206 -55.5t143.5 -158t52.5 -237.5q0 -152 -72 -265.5t-195.5 -176t-275.5 -62.5q-166 0 -291 79t-192.5 224.5t-67.5 339.5zM379 567q0 -227 49 -375.5 t168 -148.5q111 0 161 121t50 272q0 184 -60.5 274.5t-164.5 90.5q-109 -4 -197 -86q-6 -70 -6 -148z" />
<glyph unicode="7" d="M12 1044l35 168l53 263h953q-139 -203 -234.5 -402t-156 -461t-76.5 -612h-383q73 420 256.5 724t371.5 478h-561q-100 0 -148 -45t-77 -119z" />
<glyph unicode="8" horiz-adv-x="1185" d="M43 354q0 127 87 214t226 122q-270 147 -270 385q0 113 62.5 209t177 152.5t262.5 56.5q127 0 237.5 -43t178 -123t67.5 -182q0 -117 -78 -205t-198 -123q180 -94 256.5 -193.5t76.5 -220.5q0 -137 -75.5 -233t-197.5 -145.5t-259 -49.5q-135 0 -262 43t-209 129t-82 207 zM309 369q0 -136 74 -232t209 -96q117 0 186.5 66.5t69.5 162.5q0 205 -383 369l-35 14q-59 -59 -90 -134t-31 -150zM358 1204q0 -108 88.5 -186t251.5 -156q115 137 115 283q0 125 -61.5 203.5t-169.5 78.5q-96 0 -160 -62t-64 -161z" />
<glyph unicode="9" horiz-adv-x="1179" d="M41 991q0 152 71.5 265.5t195.5 176t276 62.5q166 0 290.5 -79t192.5 -224t68 -340q0 -258 -119 -453.5t-316.5 -304t-427.5 -114.5l-14 32q463 117 530 684q-72 -78 -161.5 -116.5t-184.5 -38.5q-115 0 -206 55t-143 157.5t-52 237.5zM373 1034q0 -184 60.5 -274 t164.5 -90q109 4 197 86q6 72 6 147q0 229 -49.5 376.5t-167.5 147.5q-111 0 -161 -120.5t-50 -272.5z" />
<glyph unicode="A" horiz-adv-x="1443" d="M-47 0v35q74 12 131 49t94 131l496 1260h123l512 -1262q37 -92 85 -129t107 -49v-35h-639v35q59 10 93 30.5t34 69.5q0 33 -18 78l-113 279h-493l-109 -277q-18 -45 -18 -78q0 -49 34.5 -70.5t94.5 -31.5v-35h-414zM393 561h438l-221 551z" />
<glyph unicode="B" horiz-adv-x="1302" d="M14 0v35q74 12 119 51t45 139v1024q0 100 -44 139t-120 54v33h750q131 0 234.5 -50.5t161 -137.5t57.5 -195q0 -135 -89.5 -217t-222.5 -121q164 -35 271.5 -123t107.5 -246q0 -123 -67.5 -210t-181 -131t-249.5 -44h-772zM496 68h188q145 0 213 78.5t68 240.5 q0 156 -76 238t-217 82h-176v-639zM496 788h172q117 0 173 81t56 223q0 145 -59.5 230t-175.5 85h-166v-619z" />
<glyph unicode="C" horiz-adv-x="1249" d="M16 715q0 225 92.5 403t259.5 277.5t386 99.5q92 0 197.5 -20.5t246.5 -67.5l2 -420h-33q-53 190 -156.5 315t-252.5 125q-193 0 -295.5 -189t-102.5 -488q0 -190 60.5 -328.5t162 -210.5t222.5 -72q133 0 241.5 70t174.5 170l26 -25q-61 -150 -201.5 -264.5 t-353.5 -114.5q-180 0 -334.5 91.5t-248 259.5t-93.5 389z" />
<glyph unicode="D" horiz-adv-x="1388" d="M14 0v35q74 12 119 51t45 139v1024q0 100 -44 139t-120 54v33h664q188 0 347 -91.5t253 -258.5t94 -382q0 -223 -94 -392t-253 -260t-347 -91h-664zM496 72h90q141 0 241.5 93t150.5 246.5t50 331.5q-2 172 -52 323t-149.5 243t-240.5 92h-90v-1329z" />
<glyph unicode="E" horiz-adv-x="1191" d="M14 0v35q74 12 119 51t45 139v1024q0 100 -44 139t-120 54v33h1125l4 -68l20 -320l-35 -2q-68 315 -372 316h-260v-610h206q102 0 141.5 49t51.5 129h33v-426h-33q-12 80 -51 129t-142 49h-206v-647h239q190 0 283.5 108.5t132.5 274.5l39 -4l-37 -390l-6 -63h-1133z" />
<glyph unicode="F" horiz-adv-x="1171" d="M14 0v35q74 12 119 51t45 139v1024q0 100 -44 139t-120 54v33h1119l4 -66l26 -319l-35 -3q-70 313 -376 314h-256v-608h200q102 0 141.5 49t51.5 129h33v-430h-33q-12 80 -51 129t-142 49h-200v-494q0 -100 46 -139t124 -51v-35h-652z" />
<glyph unicode="G" horiz-adv-x="1404" d="M16 717q0 223 99.5 400t275.5 277.5t395 100.5q98 0 219 -21.5t246 -66.5v-414h-30q-49 178 -163 303t-261 125q-129 0 -227.5 -88t-153 -240.5t-54.5 -340.5q0 -199 52.5 -359t148.5 -252t225 -92q104 0 205 57v414q0 103 -74.5 141.5t-195.5 51.5v35h707v-35 q-68 -12 -108 -51t-40 -142v-389q-102 -74 -233 -115t-283 -41q-217 0 -387 90.5t-266.5 258.5t-96.5 393z" />
<glyph unicode="H" horiz-adv-x="1511" d="M12 0v35q74 12 119 51t45 139v1024q0 100 -44 139t-120 54v33h645v-33q-76 -14 -119.5 -53t-43.5 -140v-473h524v473q0 100 -44 139t-120 54v33h645v-33q-76 -14 -120 -53t-44 -140v-1024q0 -100 45 -139t119 -51v-35h-645v35q74 12 119 51t45 139v477h-524v-477 q0 -100 45 -139t118 -51v-35h-645z" />
<glyph unicode="I" horiz-adv-x="698" d="M25 0v35q78 12 124 51t46 139v1024q0 100 -46.5 139t-123.5 54v33h649v-33q-78 -14 -124 -53t-46 -140v-1024q0 -100 46 -139t124 -51v-35h-649z" />
<glyph unicode="J" horiz-adv-x="667" d="M-131 -264q176 43 243.5 182t67.5 371v960q0 100 -46 139t-124 54v33h660v-33q-80 -14 -126 -53t-46 -140v-960q0 -203 -71 -334t-187.5 -191.5t-262.5 -60.5q-57 0 -106 8z" />
<glyph unicode="K" horiz-adv-x="1495" d="M14 0v35q74 12 119 51t45 139v1024q0 100 -44 139t-120 54v33h648v-33q-76 -14 -121 -53t-45 -140v-1024q0 -102 45 -140t121 -50v-35h-648zM526 758l527 508q53 51 53 92q0 63 -129 82v35h504v-35q-74 -16 -153 -54t-171 -126l-362 -349l520 -716q59 -82 119.5 -115 t128.5 -45v-35h-502z" />
<glyph unicode="L" horiz-adv-x="1132" d="M14 0v35q74 12 118 51t44 139v1024q0 100 -44 139t-118 54v33h625v-33q-74 -14 -118 -53t-44 -140v-1175h228q188 0 282 108.5t133 274.5l37 -4l-37 -390l-6 -63h-1100z" />
<glyph unicode="M" horiz-adv-x="1777" d="M14 1440v35h504l404 -988l358 988h483v-33q-78 -14 -123 -53t-45 -140v-1024q0 -100 46.5 -139t121.5 -51v-35h-653v35q78 12 124 51t46 139v1032l-461 -1257h-47l-487 1223v-998q0 -102 52 -141t138 -51v-33h-457v33q86 12 138.5 51t52.5 141v1022q0 102 -53.5 141 t-141.5 52z" />
<glyph unicode="N" horiz-adv-x="1425" d="M14 0v35q80 12 128 51t48 139v1024q0 100 -48 139t-128 54v33h439l710 -969l2 743q0 100 -48 139t-128 54v33h428v-33q-76 -14 -121 -53t-45 -140v-1249h-112l-863 1174v-949q0 -100 48.5 -139t128.5 -51v-35h-439z" />
<glyph unicode="O" horiz-adv-x="1454" d="M16 741q0 219 95.5 391.5t258 267.5t357.5 95t357.5 -95t258 -267t95.5 -392q0 -221 -95.5 -395t-258 -271.5t-357.5 -97.5t-357.5 97.5t-258 271.5t-95.5 395zM365 737q0 -172 39.5 -330.5t121.5 -260t201 -101.5t201 102.5t122 263t40 332.5t-40 329t-122 256t-201 99 t-201 -101t-121.5 -259t-39.5 -330z" />
<glyph unicode="P" horiz-adv-x="1251" d="M14 0v35q74 12 119 51t45 139v1024q0 100 -44 139t-120 54v33h742q143 0 256.5 -58.5t177 -160t63.5 -228.5q0 -145 -72.5 -246.5t-194.5 -152.5t-269 -51h-221v-353q0 -100 45 -139t121 -51v-35h-648zM496 649h151q133 0 206 112.5t73 266.5t-70 264.5t-203 110.5h-157 v-754z" />
<glyph unicode="Q" horiz-adv-x="1460" d="M16 741q0 219 95.5 391.5t258 267.5t357.5 95t357.5 -95t258 -267t95.5 -392q0 -238 -110.5 -418t-295.5 -270q66 -100 132.5 -154.5t154.5 -54.5q115 0 201 97l28 -7q-119 -282 -336 -282h-2q-135 0 -211.5 90t-138.5 252q-66 -16 -155 -17q-189 0 -346.5 98.5 t-250 273.5t-92.5 392zM362 737q0 -145 29 -283.5t86 -236.5q-6 25 -6 51q0 72 48 119t126 47q92 0 162 -65.5t145 -188.5q68 98 104 250t36 313q0 172 -40 329t-123 256t-202 99t-202 -101t-123 -259t-40 -330zM512 240q0 -68 53 -134q74 -61 162 -61q59 0 104 25 q-37 98 -62.5 153.5t-62 92t-88.5 36.5q-49 0 -77.5 -31.5t-28.5 -80.5z" />
<glyph unicode="R" horiz-adv-x="1372" d="M14 0v35q74 12 119 51t45 139v1024q0 100 -44 139t-120 54v33h748q207 0 336 -103.5t129 -279.5q0 -143 -83 -237.5t-220 -129.5l333 -526q55 -84 103.5 -118t101.5 -46v-35h-428l-411 682h-129v-457q0 -100 45 -139t118 -51v-35h-643zM494 752h180q109 0 169 87t60 236 q0 147 -63.5 240.5t-184.5 93.5h-161v-657z" />
<glyph unicode="S" horiz-adv-x="1085" d="M6 1061q0 119 62.5 217t184.5 157.5t290 59.5q117 0 221 -27.5t223 -74.5l4 -377h-33q-123 407 -416 407h-1q-123 0 -195 -57t-72 -147q0 -70 49.5 -125.5t131.5 -99.5t221 -101q401 -180 401 -475q0 -145 -73.5 -245.5t-195.5 -149t-267 -48.5q-107 0 -237 30t-267 89 l-4 385h37q66 -217 190.5 -323.5t274.5 -106.5q115 0 192.5 59.5t77.5 170.5q0 115 -94.5 188.5t-284.5 150.5q-199 76 -309.5 181.5t-110.5 261.5z" />
<glyph unicode="T" horiz-adv-x="1271" d="M-8 1102l16 305l4 68h1248l4 -68l16 -305l-37 -2q-66 301 -397 301h-53v-1176q0 -102 47 -140t125 -50v-35h-660v35q78 12 125 50t47 140v1176h-51q-188 0 -277.5 -85t-119.5 -216z" />
<glyph unicode="U" horiz-adv-x="1396" d="M-6 1442v33h647v-33q-76 -14 -121 -53t-45 -140v-684q0 -223 86 -335.5t244 -112.5t255 107.5t97 324.5v700q0 100 -49 139t-133 54v33h438v-33q-84 -14 -133 -53t-49 -140v-706q0 -283 -140.5 -425.5t-369.5 -142.5q-148 0 -276 61.5t-207.5 201t-79.5 358.5v653 q0 100 -44 139t-120 54z" />
<glyph unicode="V" horiz-adv-x="1443" d="M-59 1442v33h647v-33q-59 -10 -93 -31.5t-34 -71.5q0 -31 18 -77l367 -908l340 906q16 41 16 75q0 51 -34.5 74t-92.5 33v33h412v-33q-74 -14 -130.5 -51t-90.5 -131l-478 -1260h-120l-531 1262q-39 92 -87 128.5t-109 51.5z" />
<glyph unicode="W" horiz-adv-x="2101" d="M-43 1442v33h633v-33q-59 -10 -94 -33t-35 -74q0 -35 16 -75l305 -846l222 669l-64 177q-35 94 -84 130.5t-115 51.5v33h641v-33q-61 -12 -96 -35t-35 -74q0 -27 17 -76l303 -849l276 849q12 43 13 72q0 55 -35 78t-96 35v33h417v-33q-78 -14 -133 -51t-86 -134 l-409 -1257h-125l-349 971l-319 -971h-121l-454 1260q-35 94 -83.5 130.5t-109.5 51.5z" />
<glyph unicode="X" horiz-adv-x="1468" d="M-10 1442v33h686v-33q-51 -10 -82 -27.5t-31 -54.5t31 -88l227 -383l271 377q38 54 38 92q0 39 -30.5 55.5t-83.5 24.5v37h444v-33q-78 -14 -141.5 -47t-122.5 -115l-332 -461l367 -616q51 -88 114.5 -122t141.5 -46v-35h-690v35q51 8 82.5 25.5t31.5 54.5q0 33 -30 88 l-244 409l-289 -415q-37 -51 -37 -86q0 -37 33 -52.5t88 -23.5v-35h-440v35q76 12 139.5 45t122.5 117l340 487l-350 588q-51 88 -113.5 121.5t-140.5 48.5z" />
<glyph unicode="Y" horiz-adv-x="1419" d="M-49 1442v33h678v-35q-55 -8 -88 -27.5t-33 -64.5q0 -35 27 -88l286 -570l303 578q27 51 27 86q0 41 -32 59.5t-87 28.5v33h438v-33q-80 -14 -142 -49t-109 -123l-349 -647v-398q0 -100 46.5 -139t123.5 -51v-35h-661v35q78 12 124 51t46 139v398l-348 647 q-47 88 -108.5 122.5t-141.5 49.5z" />
<glyph unicode="Z" horiz-adv-x="1212" d="M6 0l805 1401h-324q-332 0 -415 -389l-39 4l37 395l6 64h1128l-803 -1401h322q190 0 284.5 109.5t133.5 277.5l37 -2l-37 -396l-6 -63h-1129z" />
<glyph unicode="a" horiz-adv-x="937" d="M4 264q0 141 112.5 230.5t301.5 89.5q57 0 149 -15v123q0 98 -61.5 149.5t-153.5 51.5q-78 0 -152.5 -39t-133.5 -125l-31 8q37 127 153.5 217t284.5 90q113 0 201 -45t137 -123.5t49 -175.5v-469q0 -98 45 -98q16 0 31 6l14 -12q-18 -59 -74.5 -102t-130.5 -43 q-70 0 -117.5 39.5t-58.5 103.5q-45 -63 -113.5 -103t-156.5 -40q-127 0 -211 79.5t-84 202.5zM279 301q0 -80 36.5 -134t108.5 -54q43 0 80 21.5t63 55.5v324q-16 2 -47 2q-113 0 -177 -57.5t-64 -157.5z" />
<glyph unicode="b" horiz-adv-x="1054" d="M-88 1442l455 74v-615q53 66 127.5 104.5t162.5 38.5q106 0 193.5 -57t139.5 -174t52 -287q0 -172 -62 -296t-166.5 -186t-229.5 -62q-178 0 -324 133l-151 -115h-43v1255q0 95 -40 124.5t-110 31.5zM367 348q3 -293 165 -293q88 0 139.5 92.5t51.5 282.5q0 479 -207 479 q-86 0 -149 -80v-481z" />
<glyph unicode="c" horiz-adv-x="929" d="M6 514q0 160 67.5 279.5t185.5 184t269 66.5q88 0 180.5 -23.5t174.5 -62.5l2 -294h-35q-66 162 -135.5 231.5t-153.5 69.5q-119 0 -180.5 -112t-61.5 -284q4 -193 85 -313.5t221 -120.5q86 0 157.5 46t120.5 114l27 -6q-25 -76 -83.5 -146.5t-148.5 -116.5t-202 -46 q-125 0 -238 60t-182.5 181t-69.5 293z" />
<glyph unicode="d" horiz-adv-x="1138" d="M12 506q0 172 62.5 296t167 186.5t229.5 62.5q113 0 217 -56v260q0 94 -40 124t-109 32l-4 31l454 74v-1305q0 -94 41 -131t107 -49v-31h-369q-43 63 -70 143q-53 -72 -131 -113.5t-170 -41.5q-106 0 -193 57t-139.5 174t-52.5 287zM332 602q0 -479 207 -479q86 0 149 80 v481q-4 293 -166 293q-88 0 -139 -92t-51 -283z" />
<glyph unicode="e" horiz-adv-x="976" d="M14 514q0 164 60.5 284t171 183t254.5 63q154 0 256 -70q102 -72 151 -186q47 -110 47 -238v-11h-632q10 -197 96 -297.5t213 -100.5q78 0 153.5 38t141.5 114l26 -6q-27 -74 -86 -144.5t-150 -116.5t-204 -46q-127 0 -240.5 60t-185.5 181t-72 293zM322 604h340 q0 143 -40 259t-124 116q-86 0 -129 -119t-47 -256z" />
<glyph unicode="f" horiz-adv-x="720" d="M-6 961v71h153q8 147 68.5 253t157 159t215.5 55q88 0 184 -39t168 -139l-195 -129l-18 10q-45 231 -156 232q-57 0 -92 -63.5t-35 -160.5v-178h267l-2 -71h-265v-750q0 -94 43 -131t115 -49v-31h-592v31q61 12 98 49t37 131v750h-151z" />
<glyph unicode="g" horiz-adv-x="1032" d="M-2 -229q0 59 47 84.5t119 25.5q59 0 121 -16l12 -15q-39 -37 -39 -81q0 -61 71.5 -107.5t192.5 -46.5q133 0 212 47t79 125q0 61 -48 91t-149 40l-294 27q-170 14 -239 75.5t-69 141.5q0 143 205 215q-82 51 -131 128t-49 173q0 113 64.5 196.5t167 128t212.5 44.5 q145 0 262 -68l308 49v-98l-236 -2q115 -100 115 -250q0 -113 -65.5 -198t-169 -130t-214.5 -45q-109 0 -211 45q-65 -40 -65 -79q0 -75 213 -91l293 -26q145 -12 232 -84t87 -195q0 -160 -139 -248t-393 -88q-148 0 -261.5 30t-177 82t-63.5 120zM326 676q0 -121 40 -212 t117 -91q78 0 120 92t42 211q0 121 -42 211t-120 90t-117.5 -90t-39.5 -211z" />
<glyph unicode="h" horiz-adv-x="1193" d="M-18 1442l448 74v-670q49 88 132 143t190 55q86 0 159.5 -37.5t118.5 -113.5t45 -180v-502q0 -94 39 -131t103 -49v-31h-560v31q53 12 86 49t33 131v461q0 96 -48 141t-120 45q-94 0 -178 -74v-573q0 -94 36 -131t95 -49v-31h-573v31q66 12 105.5 49t39.5 131v1044 q0 94 -40 124t-107 32z" />
<glyph unicode="i" horiz-adv-x="581" d="M4 0v31q66 12 107 49t41 131v610q0 94 -41 131t-107 49v31h442v-821q0 -94 41 -131t107 -49v-31h-590zM84 1368q0 72 52.5 123t123.5 51q72 0 124.5 -51t52.5 -123t-52.5 -122t-124.5 -50q-71 0 -123.5 50.5t-52.5 121.5z" />
<glyph unicode="j" horiz-adv-x="550" d="M-94 -362q137 92 185 226t48 322v635q0 94 -40 131t-105 49v31h438v-846q0 -186 -72.5 -310t-190.5 -184.5t-257 -70.5zM86 1368q0 72 52 123t124 51t124 -51t52 -123t-52 -122t-124 -50t-124 50t-52 122z" />
<glyph unicode="k" horiz-adv-x="1163" d="M-39 1442l449 74v-1305q0 -94 38.5 -131t104.5 -49v-31h-586v31q66 12 106 49t40 131v1044q0 94 -40 124t-108 32zM438 545l293 250q76 63 76 106q0 45 -57.5 63.5t-141.5 28.5v39h522v-10l-432 -363l297 -473q51 -80 102.5 -111.5t110.5 -43.5v-31h-456l-312 541z" />
<glyph unicode="l" horiz-adv-x="563" d="M-18 1442l145 22l305 52v-1305q0 -94 41 -131t107 -49v-31h-592v31q68 12 107.5 49t39.5 131v1044q0 94 -41 124t-106 30z" />
<glyph unicode="m" horiz-adv-x="1802" d="M-14 0v31q66 12 105.5 49t39.5 131v610q0 94 -40 131t-105 49v31h442v-188q55 92 136 146t186 54q106 0 184 -56t106 -163q57 102 140.5 160.5t193.5 58.5q133 0 220 -87t87 -244v-502q0 -94 39 -131t105 -49v-31h-557v31q53 12 85.5 49t32.5 131v461q0 90 -49 135 t-123 45q-84 0 -165 -66q6 -33 6 -73v-502q0 -94 31.5 -131t84.5 -49v-31h-530v31q53 12 86 49t33 131v461q0 92 -49 136t-125 44q-82 0 -158 -64v-577q0 -94 33 -131t86 -49v-31h-561z" />
<glyph unicode="n" horiz-adv-x="1187" d="M-14 0v31q63 12 102 49t39 131v610q0 94 -39 131t-102 49v31h440v-186q49 88 132 143t190 55q86 0 158.5 -37.5t116.5 -113.5t44 -180v-502q0 -94 39 -131t102 -49v-31h-557v31q53 12 86 49t33 131v461q0 96 -47 141t-119 45q-94 0 -178 -74v-573q0 -94 31.5 -131 t85.5 -49v-31h-557z" />
<glyph unicode="o" d="M6 518q0 164 74 283t193.5 181t256.5 62q135 0 256 -62t196 -182t75 -282q0 -164 -75 -285.5t-195.5 -187t-256.5 -65.5q-137 0 -256.5 65.5t-193.5 187t-74 285.5zM330 518q0 -190 46 -331.5t154 -141.5q106 0 154.5 142.5t48.5 330.5q0 184 -48 322.5t-155 138.5 q-109 0 -154.5 -137t-45.5 -324z" />
<glyph unicode="p" horiz-adv-x="1075" d="M-59 -399q66 12 106.5 49t40.5 131v1040q0 94 -41 131t-106 49v31h446v-129q53 66 128 105t163 39q106 0 193 -57.5t139.5 -174.5t52.5 -287q0 -172 -62.5 -295.5t-167 -186t-229.5 -62.5q-113 0 -217 55v-258q0 -94 41 -131t107 -49v-31h-594v31zM387 350 q4 -293 166 -293q88 0 139 92.5t51 282.5q0 479 -206 479q-86 0 -150 -80v-481z" />
<glyph unicode="q" horiz-adv-x="1052" d="M12 500q0 172 62.5 296t167 186t229.5 62q156 0 285 -100l174 88h57v-1237q0 -100 46 -139t124 -53v-33h-641v33q80 14 126 53t46 139v330q-53 -66 -128 -104.5t-163 -38.5q-106 0 -193 57t-139.5 174t-52.5 287zM332 596q0 -479 207 -479q86 0 149 80v481 q-4 293 -166 293q-88 0 -139 -92.5t-51 -282.5z" />
<glyph unicode="r" horiz-adv-x="854" d="M-8 0v31q66 12 105.5 49t39.5 131v610q0 94 -40 131t-105 49v31h442v-334q33 150 130.5 247t226.5 97q29 0 59 -6l-45 -276h-19q-53 24 -104 24h-4q-96 0 -162.5 -74.5t-81.5 -203.5v-295q0 -94 39 -131t105 -49v-31h-586z" />
<glyph unicode="s" horiz-adv-x="845" d="M14 727q0 90 52.5 163t145.5 113.5t214 40.5q176 0 356 -73l-2 -279h-37q-66 162 -144.5 222.5t-166.5 60.5q-80 0 -127 -36t-47 -93q0 -51 41 -80t139 -68l94 -39q154 -68 228 -151.5t74 -192.5q0 -156 -114 -245.5t-286 -89.5q-178 0 -393 86l2 299h35 q86 -172 172 -244t182 -72q78 0 122 37t44 94q0 68 -63.5 113t-208.5 106q-311 131 -312 328z" />
<glyph unicode="t" horiz-adv-x="702" d="M-39 956v33q123 43 229.5 131t176.5 215h41v-303h280v-76h-280l2 -622q0 -84 33.5 -135.5t97.5 -51.5q66 0 131 58l26 -8q-47 -98 -122.5 -157.5t-188.5 -59.5q-131 0 -203.5 85t-72.5 240v651h-150z" />
<glyph unicode="u" horiz-adv-x="1236" d="M6 1001v31h438v-672q0 -96 47.5 -141t120.5 -45q47 0 94.5 19.5t86.5 54.5v573q0 94 -32 131t-85 49v31h416v-821q0 -94 38.5 -131t102.5 -49v-31h-356q-53 70 -82 174q-55 -84 -140.5 -135t-187.5 -51q-86 0 -158.5 37.5t-117 113.5t-44.5 180v502q0 94 -38.5 131 t-102.5 49z" />
<glyph unicode="v" horiz-adv-x="1077" d="M-29 1001v31h566v-31q-47 -10 -74 -27.5t-27 -60.5q0 -31 19 -79l207 -498l202 498q18 47 19 75q0 45 -30 63.5t-83 28.5v31h344v-31q-51 -12 -94 -45.5t-78 -121.5l-338 -834h-119l-356 836q-35 86 -74 119.5t-84 45.5z" />
<glyph unicode="w" horiz-adv-x="1662" d="M-35 1001v31h588v-31q-53 -10 -83 -30.5t-30 -69.5q0 -31 15 -72l143 -444l211 647h238l235 -672l162 471q12 41 12 68q0 51 -31.5 71.5t-89.5 30.5v31h369v-31q-57 -12 -101 -46.5t-75 -123.5l-293 -831h-129l-295 791l-262 -791h-127l-291 831q-31 89 -72 123.5 t-94 46.5z" />
<glyph unicode="x" horiz-adv-x="1140" d="M-23 1001v31h609v-31q-92 -12 -92 -65q0 -31 32 -82l144 -219l159 223q33 47 33 76q0 33 -28.5 46t-81.5 21v31h368v-31q-53 -12 -101 -42.5t-104 -106.5l-204 -281l254 -387q51 -78 98 -109.5t100 -43.5v-31h-608v31q41 8 65.5 22.5t24.5 44.5q0 35 -35 86l-129 199 l-153 -205q-39 -49 -39 -84q0 -29 24.5 -42t67.5 -21v-31h-377v31q63 12 118.5 41.5t110.5 105.5l205 271l-262 399q-51 78 -98 109.5t-101 43.5z" />
<glyph unicode="y" horiz-adv-x="1103" d="M-16 1001v31h551v-31q-47 -10 -73 -27.5t-26 -60.5q0 -31 19 -79l207 -531l212 531q18 47 19 75q0 43 -31 62.5t-84 29.5v31h352v-31q-51 -12 -94 -45.5t-80 -121.5l-389 -953q-63 -156 -145 -231.5t-186 -75.5q-86 0 -193 53l37 223l26 17q100 -63 205 -64q70 0 121 30 t74 83l4 12l-371 906q-35 88 -72.5 121.5t-82.5 45.5z" />
<glyph unicode="z" horiz-adv-x="911" d="M0 0l532 965h-157q-274 0 -340 -275l-31 2l23 279l4 61h876l-530 -964h125q276 0 338 274l32 -2l-22 -279l-6 -61h-844z" />
<glyph unicode="&#xa1;" horiz-adv-x="536" d="M68 -403q8 96 33.5 238t72.5 378q16 76 68 352h51q10 -53 63 -327q53 -268 79 -404.5t34 -236.5h-401zM90 913q0 74 52.5 126.5t125.5 52.5q74 0 126 -52.5t52 -126.5t-52 -126t-126 -52q-76 0 -127 52.5t-51 125.5z" />
<glyph unicode="&#xa2;" horiz-adv-x="970" d="M27 514q0 160 67.5 279.5t185 184t269.5 66.5q23 0 72 -4l18 213h68l-19 -223q111 -20 215 -72l2 -294h-35q-88 215 -190 274l-68 -801q10 -2 33 -2q86 0 157.5 46t121.5 114l26 -6q-35 -104 -126 -191.5t-224 -109.5l-16 -201h-68l16 193h-16q-125 0 -237.5 60t-182 181 t-69.5 293zM340 569q4 -153 57.5 -264.5t149.5 -150.5l67 809q-10 2 -32 2q-119 0 -180.5 -112t-61.5 -284z" />
<glyph unicode="&#xa3;" horiz-adv-x="1116" d="M23 0v35q210 284 210 540q0 47 -6 87h-161v69h149q-16 63 -51 162q-31 82 -45.5 136t-14.5 110q0 113 69 193.5t182.5 121.5t248.5 41q109 0 206 -24.5t200 -65.5l2 -418h-31q-70 205 -155 322.5t-203 117.5q-94 0 -149.5 -66.5t-55.5 -168.5q0 -53 13 -103.5t42 -123.5 q27 -74 42 -125.5t17 -108.5h320v-69h-320q-10 -102 -62 -179t-157 -186q-84 -90 -100 -109l16 5q133 61 277 61q59 0 114.5 -8t102.5 -17.5t63 -13.5q25 -6 50 -6q145 0 264 217l30 -2q-47 -186 -102 -284.5t-115.5 -131.5t-136.5 -33q-74 0 -219 31q-176 37 -283 37 q-133 0 -251 -43z" />
<glyph unicode="&#xa4;" horiz-adv-x="1105" d="M57 201l160 159q-98 121 -98 277q0 117 58.5 216t157.5 157.5t218 58.5q76 0 146.5 -25.5t127.5 -72.5l160 157l62 -61l-160 -160q96 -119 96 -270q0 -119 -58.5 -218.5t-157.5 -157.5t-216 -58q-153 0 -270 94l-162 -158zM256 637q0 -80 40 -151.5t108.5 -113.5 t148.5 -42q102 0 180 65l-184 187l61 59l181 -182q57 80 57 178q0 80 -40 150.5t-108.5 112.5t-146.5 42q-102 0 -180 -65l188 -189l-57 -61l-191 186q-57 -76 -57 -176z" />
<glyph unicode="&#xa5;" horiz-adv-x="1480" d="M-18 1442v33h677v-35q-55 -8 -87.5 -27.5t-32.5 -64.5q0 -35 26 -88l287 -570l303 578q27 51 27 86q0 41 -32 59.5t-87 28.5v33h438v-33q-80 -14 -142.5 -49t-109.5 -123l-311 -580h283v-69h-320v-170h320v-72h-320v-154q0 -100 46 -139t124 -51v-35h-661v35 q78 12 124 51t46 139v154h-361v72h361v170h-361v69h324l-312 580q-47 88 -108.5 122.5t-140.5 49.5z" />
<glyph unicode="&#xa6;" horiz-adv-x="649" d="M283 0v627h69v-627h-69zM283 850v625h69v-625h-69z" />
<glyph unicode="&#xa7;" horiz-adv-x="909" d="M78 477q0 88 55 161t154 107q-98 47 -153.5 107.5t-55.5 151.5q0 80 44 147.5t129 107t202 39.5q150 0 335 -69v-260h-30q-49 147 -133 205.5t-174 58.5q-70 0 -122.5 -33t-52.5 -90q0 -45 35 -79t87.5 -59.5t152.5 -66.5q281 -115 280 -321q0 -92 -46 -158t-128 -100 q174 -106 174 -269q0 -141 -107.5 -219t-266.5 -78q-76 0 -172.5 20.5t-190.5 59.5v258h35q49 -147 139 -209.5t185 -62.5q76 0 128 38t52 103q0 72 -65.5 120t-196.5 97q-141 53 -217 120t-76 173zM276 582q0 -45 35 -78t85 -57.5t155 -67.5l8 -4q35 16 55.5 47t20.5 74 q0 72 -60.5 117.5t-183.5 91.5q-51 -8 -83 -43t-32 -80z" />
<glyph unicode="&#xa8;" horiz-adv-x="1171" d="M188 1270q0 65 46.5 110t109.5 45q66 0 111 -45t45 -110q0 -63 -45 -109.5t-111 -46.5q-63 0 -109.5 46t-46.5 110zM631 1270q0 66 46 110.5t109 44.5q66 0 111 -45t45 -110q0 -63 -45 -109.5t-111 -46.5q-63 0 -109 46t-46 110z" />
<glyph unicode="&#xa9;" horiz-adv-x="1656" d="M111 694q0 197 96 362t261 261t361 96q197 0 362 -96t261 -261t96 -362q0 -195 -96 -360.5t-262 -262t-361 -96.5q-194 0 -360 96.5t-262 262.5t-96 360zM197 696q0 -174 84 -322.5t229 -234.5t319 -86q176 0 321.5 86t229.5 234.5t84 322.5q0 176 -84 324.5t-228 234.5 t-318 86t-320.5 -87t-231.5 -234.5t-85 -323.5zM455 690q0 125 52 221.5t143 149.5t204 53q135 0 270 -72v-219h-37q-33 123 -86 178.5t-131 55.5q-106 0 -174.5 -98.5t-68.5 -241.5q0 -98 33.5 -179t93 -126t133.5 -45q70 0 130 38.5t107 102.5l35 -10q-35 -90 -120 -160 t-203 -70q-98 0 -186.5 50.5t-141.5 146.5t-53 225z" />
<glyph unicode="&#xaa;" horiz-adv-x="937" d="M4 264q0 141 112.5 230.5t301.5 89.5q57 0 149 -15v123q0 98 -61.5 149.5t-153.5 51.5q-78 0 -152.5 -39t-133.5 -125l-31 8q37 127 153.5 217t284.5 90q113 0 201 -45t137 -123.5t49 -175.5v-469q0 -98 45 -98q16 0 31 6l14 -12q-18 -59 -74.5 -102t-130.5 -43 q-70 0 -117.5 39.5t-58.5 103.5q-45 -63 -113.5 -103t-156.5 -40q-127 0 -211 79.5t-84 202.5zM279 301q0 -80 36.5 -134t108.5 -54q43 0 80 21.5t63 55.5v324q-16 2 -47 2q-113 0 -177 -57.5t-64 -157.5z" />
<glyph unicode="&#xab;" horiz-adv-x="870" d="M55 567l365 385h84l-293 -385l293 -385h-84zM356 567l365 385h84l-293 -385l293 -385h-84z" />
<glyph unicode="&#xac;" horiz-adv-x="1173" />
<glyph unicode="&#xad;" horiz-adv-x="921" d="M68 606v70h786v-70h-786z" />
<glyph unicode="&#xae;" horiz-adv-x="903" d="M53 1096q0 109 53.5 201t145.5 145t201 53t200.5 -53t145 -145.5t53.5 -200.5q0 -109 -53.5 -201t-145.5 -145.5t-200 -53.5q-109 0 -201 53.5t-145.5 145.5t-53.5 201zM109 1098q0 -94 46 -175t124.5 -129.5t173.5 -48.5q96 0 175 48.5t124 129.5t45 175t-45 175 t-123 128t-172 47q-96 0 -176 -47t-126 -127t-46 -176zM268 901v14q25 4 36 12.5t11 37.5v288q0 27 -11 35t-36 12v13h209q57 0 94 -29t37 -78q0 -39 -23.5 -65.5t-62.5 -38.5l94 -146q14 -23 26.5 -29.5t31.5 -11.5v-14h-121l-115 186h-35v-122q0 -29 10.5 -37t32.5 -13 v-14h-178zM403 1116h50q66 0 65 86q0 86 -72 86h-43v-172z" />
<glyph unicode="&#xaf;" horiz-adv-x="1171" d="M295 1235v115h623v-115h-623z" />
<glyph unicode="&#xb0;" horiz-adv-x="694" d="M47 1202q0 78 39 146.5t106.5 108.5t151.5 40t153.5 -41t109.5 -108.5t40 -145.5t-40 -147.5t-109.5 -110.5t-153.5 -41t-151.5 41t-106.5 110.5t-39 147.5zM176 1202q0 -72 47 -125t121 -53t124 53t50 125q0 70 -50 122t-124 52t-121 -52t-47 -122z" />
<glyph unicode="&#xb1;" horiz-adv-x="1144" d="M78 723v68h307q63 0 93 4t42 18q12 12 16.5 36.5t4.5 86.5v315h67v-317q0 -61 3 -86t16 -37q12 -12 39.5 -16t89.5 -4h313v-68h-313q-61 0 -89 -4t-40 -17q-12 -12 -15.5 -36.5t-3.5 -85.5v-316h-67v316q0 61 -4.5 85.5t-16.5 36.5t-39.5 16.5t-95.5 4.5h-307zM156 98v74 h833v-74h-833z" />
<glyph unicode="&#xb2;" horiz-adv-x="686" d="M43 746v51l162 176q219 248 219 408q0 76 -41 113.5t-102 37.5q-57 0 -110.5 -34.5t-88.5 -104.5l-31 6q33 121 121 188.5t203 67.5t188.5 -64.5t73.5 -164.5q0 -78 -46 -151.5t-124 -147.5t-215 -185q-4 -4 -16 -18h208q102 0 147.5 25.5t70.5 66.5l32 -8l-26 -100 l-43 -160z" />
<glyph unicode="&#xb3;" horiz-adv-x="698" d="M41 990l29 6q84 -143 211 -144q80 0 126 54.5t46 136.5q0 78 -40 120t-110 42q-27 0 -55 -7l-17 29l222 240h-150q-100 0 -140 -28t-54 -75l-35 2l4 103l4 174h575v-39l-331 -354q37 6 67 6q123 0 191.5 -69.5t68.5 -170.5q0 -78 -40 -143.5t-109.5 -102t-153.5 -36.5 q-110 0 -195 66.5t-114 189.5z" />
<glyph unicode="&#xb4;" horiz-adv-x="1171" d="M82 1151l280 367l248 -140v-16l-485 -225z" />
<glyph unicode="&#xb5;" horiz-adv-x="1173" />
<glyph unicode="&#xb6;" horiz-adv-x="1232" d="M164 1022q0 133 62.5 236.5t167 160t224.5 56.5h261v-1475h-88v567h-173q-129 0 -232 55.5t-162.5 158t-59.5 241.5zM965 0v1475h90v-1475h-90z" />
<glyph unicode="&#xb7;" horiz-adv-x="481" d="M77 701q0 74 52.5 126t126.5 52t126 -52.5t52 -125.5q0 -74 -52.5 -126t-125.5 -52q-74 0 -126.5 52t-52.5 126z" />
<glyph unicode="&#xb8;" horiz-adv-x="1171" d="M362 -268q63 -39 111 -39q33 0 51.5 17.5t18.5 45.5q0 41 -37 65.5t-98 31.5l120 178h84l-86 -123q94 -10 151.5 -53t57.5 -111q0 -63 -47 -98t-123 -37q-117 0 -203 76v47z" />
<glyph unicode="&#xb9;" horiz-adv-x="466" d="M18 1471v31q84 23 138.5 51t150.5 90h60v-698q0 -90 28.5 -124t73.5 -44v-31h-403v31q45 10 73.5 43.5t28.5 124.5v526h-150z" />
<glyph unicode="&#xba;" d="M6 518q0 164 74 283t193.5 181t256.5 62q135 0 256 -62t196 -182t75 -282q0 -164 -75 -285.5t-195.5 -187t-256.5 -65.5q-137 0 -256.5 65.5t-193.5 187t-74 285.5zM330 518q0 -190 46 -331.5t154 -141.5q106 0 154.5 142.5t48.5 330.5q0 184 -48 322.5t-155 138.5 q-109 0 -154.5 -137t-45.5 -324z" />
<glyph unicode="&#xbb;" horiz-adv-x="870" d="M66 182l292 385l-292 385h84l364 -385l-364 -385h-84zM367 182l292 385l-292 385h84l364 -385l-364 -385h-84z" />
<glyph unicode="&#xbc;" horiz-adv-x="1468" d="M18 1309v31q84 23 138.5 51t150.5 90h60v-698q0 -90 28.5 -124t73.5 -44v-31h-403v31q45 10 73.5 43.5t28.5 124.5v526h-150zM167 -59l1014 1607l62 -28l-1012 -1610zM756 195l4 6v63l391 627h174v-574h121v-122h-121q4 -86 30.5 -120t69.5 -46v-35h-405v35 q43 12 70.5 46t31.5 120h-366zM858 317h264v420z" />
<glyph unicode="&#xbd;" horiz-adv-x="1513" d="M18 1309v31q84 23 138.5 51t150.5 90h60v-698q0 -90 28.5 -124t73.5 -44v-31h-403v31q45 10 73.5 43.5t28.5 124.5v526h-150zM167 -59l1014 1607l62 -28l-1012 -1610zM870 -6v51l162 176q219 248 219 408q0 76 -41 113.5t-102 37.5q-57 0 -110.5 -34.5t-88.5 -104.5 l-31 6q33 121 121 188.5t203 67.5t188.5 -64.5t73.5 -164.5q0 -78 -46 -151.5t-124 -147.5t-215 -185q-4 -4 -16 -18h208q102 0 147.5 25.5t70.5 66.5l32 -8l-26 -100l-43 -160z" />
<glyph unicode="&#xbe;" horiz-adv-x="1581" d="M41 828l29 6q84 -143 211 -144q80 0 126 54.5t46 136.5q0 78 -40 120t-110 42q-27 0 -55 -7l-17 29l222 240h-150q-100 0 -140 -28t-54 -75l-35 2l4 103l4 174h575v-39l-331 -354q37 6 67 6q123 0 191.5 -69.5t68.5 -170.5q0 -78 -40 -143.5t-109.5 -102t-153.5 -36.5 q-110 0 -195 66.5t-114 189.5zM280 -59l1014 1607l62 -28l-1012 -1610zM869 195l4 6v63l391 627h174v-574h121v-122h-121q4 -86 30.5 -120t69.5 -46v-35h-405v35q43 12 70.5 46t31.5 120h-366zM971 317h264v420z" />
<glyph unicode="&#xbf;" horiz-adv-x="927" d="M14 -78q0 96 53.5 181t114 141.5t140.5 117.5q104 82 137 138.5t33 124.5h22q51 -33 82 -82t31 -115q0 -82 -41 -147.5t-119 -147.5q-53 -61 -82 -96t-51.5 -85t-22.5 -108q0 -82 49.5 -134t128.5 -52q70 0 137.5 43t117 136t61.5 237l47 2l88 -389q-94 -39 -219 -68 t-238 -29q-121 0 -228.5 37t-174 112t-66.5 183zM334 928q0 73 52 125.5t126 52.5t126 -52.5t52 -125.5q0 -74 -52 -126t-126 -52t-126 52t-52 126z" />
<glyph unicode="&#xc0;" horiz-adv-x="1443" d="M-47 0v35q74 12 131 49t94 131l496 1260h123l512 -1262q37 -92 85 -129t107 -49v-35h-639v35q59 10 93 30.5t34 69.5q0 33 -18 78l-113 279h-493l-109 -277q-18 -45 -18 -78q0 -49 34.5 -70.5t94.5 -31.5v-35h-414zM393 561h438l-221 551zM445 1806v16l248 140l280 -367 l-43 -14z" />
<glyph unicode="&#xc1;" horiz-adv-x="1443" d="M-47 0v35q74 12 131 49t94 131l496 1260h123l512 -1262q37 -92 85 -129t107 -49v-35h-639v35q59 10 93 30.5t34 69.5q0 33 -18 78l-113 279h-493l-109 -277q-18 -45 -18 -78q0 -49 34.5 -70.5t94.5 -31.5v-35h-414zM393 561h438l-221 551zM494 1593l280 367l248 -140v-16 l-485 -225z" />
<glyph unicode="&#xc2;" horiz-adv-x="1443" d="M-47 0v35q74 12 131 49t94 131l496 1260h123l512 -1262q37 -92 85 -129t107 -49v-35h-639v35q59 10 93 30.5t34 69.5q0 33 -18 78l-113 279h-493l-109 -277q-18 -45 -18 -78q0 -49 34.5 -70.5t94.5 -31.5v-35h-414zM389 1591l235 313h218l235 -313h-51l-293 174 l-295 -174h-49zM393 561h438l-221 551z" />
<glyph unicode="&#xc3;" horiz-adv-x="1443" d="M-47 0v35q74 12 131 49t94 131l496 1260h123l512 -1262q37 -92 85 -129t107 -49v-35h-639v35q59 10 93 30.5t34 69.5q0 33 -18 78l-113 279h-493l-109 -277q-18 -45 -18 -78q0 -49 34.5 -70.5t94.5 -31.5v-35h-414zM385 1632q2 59 26.5 116.5t71.5 95.5t113 38 q39 0 74.5 -11.5t82.5 -33.5q86 -43 142 -43q51 0 98 28.5t82 92.5h18q-6 -139 -69.5 -206t-151.5 -67q-39 0 -72.5 11.5t-93.5 35.5q-43 20 -75.5 31.5t-65.5 11.5q-98 0 -160 -100h-20zM393 561h438l-221 551z" />
<glyph unicode="&#xc4;" horiz-adv-x="1443" d="M-47 0v35q74 12 131 49t94 131l496 1260h123l512 -1262q37 -92 85 -129t107 -49v-35h-639v35q59 10 93 30.5t34 69.5q0 33 -18 78l-113 279h-493l-109 -277q-18 -45 -18 -78q0 -49 34.5 -70.5t94.5 -31.5v-35h-414zM356 1712q0 65 46.5 110t109.5 45q66 0 111 -45 t45 -110q0 -63 -45 -109.5t-111 -46.5q-63 0 -109.5 46t-46.5 110zM393 561h438l-221 551zM799 1712q0 66 46 110.5t109 44.5q66 0 111 -45t45 -110q0 -63 -45 -109.5t-111 -46.5q-63 0 -109 46t-46 110z" />
<glyph unicode="&#xc5;" horiz-adv-x="1443" d="M-47 0v35q74 12 131 49t94 131l496 1260h123l512 -1262q37 -92 85 -129t107 -49v-35h-639v35q59 10 93 30.5t34 69.5q0 33 -18 78l-113 279h-493l-109 -277q-18 -45 -18 -78q0 -49 34.5 -70.5t94.5 -31.5v-35h-414zM393 561h438l-221 551zM535 1786q0 80 58 137t138 57 q82 0 139.5 -56t59.5 -138q-2 -82 -59.5 -138.5t-139.5 -56.5q-80 0 -138 57.5t-58 137.5zM614 1786q0 -49 35 -85t82 -36q49 0 84 36t35 85t-35 85t-84 36q-47 0 -82 -36t-35 -85z" />
<glyph unicode="&#xc6;" horiz-adv-x="2070" d="M4 0v35q76 12 137.5 46t114.5 120l655 1073q31 51 31 86q0 37 -30.5 54.5t-84.5 27.5v33h1190l4 -68l21 -320l-35 -2q-31 137 -114 226.5t-259 89.5h-260v-610h207q100 0 139 48t54 130h32v-426h-32q-14 82 -53.5 130t-139.5 48h-207v-647h240q188 0 282.5 108.5 t133.5 274.5l36 -4l-34 -390l-7 -63h-1132v35q74 12 119 51t45 139v295h-516l-197 -319q-31 -51 -31 -86q0 -37 31 -54.5t84 -25.5v-35h-424zM582 590h475v774z" />
<glyph unicode="&#xc7;" horiz-adv-x="1249" d="M16 715q0 225 92.5 403t259.5 277.5t386 99.5q92 0 197.5 -20.5t246.5 -67.5l2 -420h-33q-53 190 -156.5 315t-252.5 125q-193 0 -295.5 -189t-102.5 -488q0 -190 60.5 -328.5t162 -210.5t222.5 -72q133 0 241.5 70t174.5 170l26 -25q-61 -150 -201.5 -264.5 t-353.5 -114.5h-12l-47 -67q94 -10 151.5 -53t57.5 -111q0 -63 -47 -98t-123 -37q-117 0 -203 76v47q63 -39 111 -39q33 0 51 17.5t18 45.5q0 41 -37 65.5t-98 31.5l88 129q-162 23 -295 118t-212 253.5t-79 361.5z" />
<glyph unicode="&#xc8;" horiz-adv-x="1191" d="M14 0v35q74 12 119 51t45 139v1024q0 100 -44 139t-120 54v33h1125l4 -68l20 -320l-35 -2q-68 315 -372 316h-260v-610h206q102 0 141.5 49t51.5 129h33v-426h-33q-12 80 -51 129t-142 49h-206v-647h239q190 0 283.5 108.5t132.5 274.5l39 -4l-37 -390l-6 -63h-1133z M336 1810v16l248 140l280 -367l-43 -14z" />
<glyph unicode="&#xc9;" horiz-adv-x="1191" d="M14 0v35q74 12 119 51t45 139v1024q0 100 -44 139t-120 54v33h1125l4 -68l20 -320l-35 -2q-68 315 -372 316h-260v-610h206q102 0 141.5 49t51.5 129h33v-426h-33q-12 80 -51 129t-142 49h-206v-647h239q190 0 283.5 108.5t132.5 274.5l39 -4l-37 -390l-6 -63h-1133z M385 1597l280 367l248 -140v-16l-485 -225z" />
<glyph unicode="&#xca;" horiz-adv-x="1191" d="M14 0v35q74 12 119 51t45 139v1024q0 100 -44 139t-120 54v33h1125l4 -68l20 -320l-35 -2q-68 315 -372 316h-260v-610h206q102 0 141.5 49t51.5 129h33v-426h-33q-12 80 -51 129t-142 49h-206v-647h239q190 0 283.5 108.5t132.5 274.5l39 -4l-37 -390l-6 -63h-1133z M283 1595l235 313h218l235 -313h-51l-293 174l-295 -174h-49z" />
<glyph unicode="&#xcb;" horiz-adv-x="1191" d="M14 0v35q74 12 119 51t45 139v1024q0 100 -44 139t-120 54v33h1125l4 -68l20 -320l-35 -2q-68 315 -372 316h-260v-610h206q102 0 141.5 49t51.5 129h33v-426h-33q-12 80 -51 129t-142 49h-206v-647h239q190 0 283.5 108.5t132.5 274.5l39 -4l-37 -390l-6 -63h-1133z M247 1716q0 65 46.5 110t109.5 45q66 0 111 -45t45 -110q0 -63 -45 -109.5t-111 -46.5q-63 0 -109.5 46t-46.5 110zM690 1716q0 66 46 110.5t109 44.5q66 0 111 -45t45 -110q0 -63 -45 -109.5t-111 -46.5q-63 0 -109 46t-46 110z" />
<glyph unicode="&#xcc;" horiz-adv-x="698" d="M25 0v35q78 12 124 51t46 139v1024q0 100 -46.5 139t-123.5 54v33h649v-33q-78 -14 -124 -53t-46 -140v-1024q0 -100 46 -139t124 -51v-35h-649zM61 1804v17l246 139l279 -365l-41 -14z" />
<glyph unicode="&#xcd;" horiz-adv-x="698" d="M25 0v35q78 12 124 51t46 139v1024q0 100 -46.5 139t-123.5 54v33h649v-33q-78 -14 -124 -53t-46 -140v-1024q0 -100 46 -139t124 -51v-35h-649zM111 1593l278 363l244 -139v-15l-479 -223z" />
<glyph unicode="&#xce;" horiz-adv-x="698" d="M10 1589l232 312h215l233 -312h-51l-289 172l-293 -172h-47zM25 0v35q78 12 124 51t46 139v1024q0 100 -46.5 139t-123.5 54v33h649v-33q-78 -14 -124 -53t-46 -140v-1024q0 -100 46 -139t124 -51v-35h-649z" />
<glyph unicode="&#xcf;" horiz-adv-x="698" d="M-27 1710q0 66 46.5 111t109.5 45q66 0 111 -45t45 -111q0 -63 -46 -108.5t-110 -45.5q-63 0 -109.5 45.5t-46.5 108.5zM25 0v35q78 12 124 51t46 139v1024q0 100 -46.5 139t-123.5 54v33h649v-33q-78 -14 -124 -53t-46 -140v-1024q0 -100 46 -139t124 -51v-35h-649z M414 1710q0 66 46 111t109 45t108.5 -46t45.5 -110q0 -63 -45 -108.5t-109 -45.5q-63 0 -109 45.5t-46 108.5z" />
<glyph unicode="&#xd0;" horiz-adv-x="1460" d="M18 682v90h191v477q0 100 -46 139t-124 54v33h696q195 0 356.5 -91.5t257 -258.5t95.5 -382q0 -223 -94.5 -392t-257 -260t-357.5 -91h-696v35q78 12 124 51t46 139v457h-191zM526 86h119q147 0 247.5 89t149 238.5t48.5 329.5q-2 174 -50.5 320.5t-147.5 237t-247 90.5 h-119v-619h301v-90h-301v-596z" />
<glyph unicode="&#xd1;" horiz-adv-x="1425" d="M14 0v35q80 12 128 51t48 139v1024q0 100 -48 139t-128 54v33h439l710 -969l2 743q0 100 -48 139t-128 54v33h428v-33q-76 -14 -121 -53t-45 -140v-1249h-112l-863 1174v-949q0 -100 48.5 -139t128.5 -51v-35h-439zM383 1632q2 59 26.5 116.5t71.5 95.5t113 38 q39 0 74.5 -11.5t82.5 -33.5q86 -43 142 -43q51 0 98 28.5t82 92.5h18q-6 -139 -69.5 -206t-151.5 -67q-39 0 -72.5 11.5t-93.5 35.5q-43 20 -75.5 31.5t-65.5 11.5q-98 0 -160 -100h-20z" />
<glyph unicode="&#xd2;" horiz-adv-x="1454" d="M16 741q0 219 95.5 391.5t258 267.5t357.5 95t357.5 -95t258 -267t95.5 -392q0 -221 -95.5 -395t-258 -271.5t-357.5 -97.5t-357.5 97.5t-258 271.5t-95.5 395zM365 737q0 -172 39.5 -330.5t121.5 -260t201 -101.5t201 102.5t122 263t40 332.5t-40 329t-122 256t-201 99 t-201 -101t-121.5 -259t-39.5 -330zM439 1806v16l248 140l280 -367l-43 -14z" />
<glyph unicode="&#xd3;" horiz-adv-x="1454" d="M16 741q0 219 95.5 391.5t258 267.5t357.5 95t357.5 -95t258 -267t95.5 -392q0 -221 -95.5 -395t-258 -271.5t-357.5 -97.5t-357.5 97.5t-258 271.5t-95.5 395zM365 737q0 -172 39.5 -330.5t121.5 -260t201 -101.5t201 102.5t122 263t40 332.5t-40 329t-122 256t-201 99 t-201 -101t-121.5 -259t-39.5 -330zM488 1593l280 367l248 -140v-16l-485 -225z" />
<glyph unicode="&#xd4;" horiz-adv-x="1454" d="M16 741q0 219 95.5 391.5t258 267.5t357.5 95t357.5 -95t258 -267t95.5 -392q0 -221 -95.5 -395t-258 -271.5t-357.5 -97.5t-357.5 97.5t-258 271.5t-95.5 395zM365 737q0 -172 39.5 -330.5t121.5 -260t201 -101.5t201 102.5t122 263t40 332.5t-40 329t-122 256t-201 99 t-201 -101t-121.5 -259t-39.5 -330zM385 1591l235 313h218l235 -313h-51l-293 174l-295 -174h-49z" />
<glyph unicode="&#xd5;" horiz-adv-x="1454" d="M16 741q0 219 95.5 391.5t258 267.5t357.5 95t357.5 -95t258 -267t95.5 -392q0 -221 -95.5 -395t-258 -271.5t-357.5 -97.5t-357.5 97.5t-258 271.5t-95.5 395zM365 737q0 -172 39.5 -330.5t121.5 -260t201 -101.5t201 102.5t122 263t40 332.5t-40 329t-122 256t-201 99 t-201 -101t-121.5 -259t-39.5 -330zM379 1632q2 59 26.5 116.5t71.5 95.5t113 38q39 0 74.5 -11.5t82.5 -33.5q86 -43 142 -43q51 0 98 28.5t82 92.5h18q-6 -139 -69.5 -206t-151.5 -67q-39 0 -72.5 11.5t-93.5 35.5q-43 20 -75.5 31.5t-65.5 11.5q-98 0 -160 -100h-20z" />
<glyph unicode="&#xd6;" horiz-adv-x="1454" d="M16 741q0 219 95.5 391.5t258 267.5t357.5 95t357.5 -95t258 -267t95.5 -392q0 -221 -95.5 -395t-258 -271.5t-357.5 -97.5t-357.5 97.5t-258 271.5t-95.5 395zM350 1712q0 65 46.5 110t109.5 45q66 0 111 -45t45 -110q0 -63 -45 -109.5t-111 -46.5q-63 0 -109.5 46 t-46.5 110zM365 737q0 -172 39.5 -330.5t121.5 -260t201 -101.5t201 102.5t122 263t40 332.5t-40 329t-122 256t-201 99t-201 -101t-121.5 -259t-39.5 -330zM793 1712q0 66 46 110.5t109 44.5q66 0 111 -45t45 -110q0 -63 -45 -109.5t-111 -46.5q-63 0 -109 46t-46 110z" />
<glyph unicode="&#xd7;" horiz-adv-x="911" d="M84 1004l49 47l217 -217q47 -45 69.5 -63.5t41.5 -16.5q16 -2 36.5 13t65.5 60l223 222l48 -48l-226 -225q-43 -43 -58 -62.5t-15 -35.5q0 -18 17 -41t60 -66l222 -221l-48 -47l-221 221q-45 43 -66.5 59.5t-37.5 16.5t-38 -15.5t-65 -58.5l-223 -223l-47 49l223 221 q45 45 59.5 65.5t12.5 37.5q2 16 -15.5 38.5t-64.5 71.5z" />
<glyph unicode="&#xd8;" horiz-adv-x="1486" d="M41 741q0 221 93 392.5t254 266.5t355 95q201 0 369 -104l115 184h94l-145 -229q127 -102 198.5 -258t71.5 -347q0 -223 -93 -398t-254 -271.5t-356 -96.5q-198 1 -364 103l-115 -182h-94l143 227q-127 104 -199.5 263t-72.5 355zM399 737q1 -201 60 -383l536 852 q-45 94 -108.5 148.5t-141.5 54.5q-111 0 -188.5 -102.5t-117.5 -258t-40 -311.5zM496 264q45 -94 108.5 -147.5t140.5 -53.5q109 0 188 102.5t119 260.5t40 317q0 195 -60 373z" />
<glyph unicode="&#xd9;" horiz-adv-x="1396" d="M-6 1442v33h647v-33q-76 -14 -121 -53t-45 -140v-684q0 -223 86 -335.5t244 -112.5t255 107.5t97 324.5v700q0 100 -49 139t-133 54v33h438v-33q-84 -14 -133 -53t-49 -140v-706q0 -283 -140.5 -425.5t-369.5 -142.5q-148 0 -276 61.5t-207.5 201t-79.5 358.5v653 q0 100 -44 139t-120 54zM453 1821v16l248 140l280 -367l-43 -14z" />
<glyph unicode="&#xda;" horiz-adv-x="1396" d="M-6 1442v33h647v-33q-76 -14 -121 -53t-45 -140v-684q0 -223 86 -335.5t244 -112.5t255 107.5t97 324.5v700q0 100 -49 139t-133 54v33h438v-33q-84 -14 -133 -53t-49 -140v-706q0 -283 -140.5 -425.5t-369.5 -142.5q-148 0 -276 61.5t-207.5 201t-79.5 358.5v653 q0 100 -44 139t-120 54zM502 1608l280 367l248 -140v-16l-485 -225z" />
<glyph unicode="&#xdb;" horiz-adv-x="1396" d="M-6 1442v33h647v-33q-76 -14 -121 -53t-45 -140v-684q0 -223 86 -335.5t244 -112.5t255 107.5t97 324.5v700q0 100 -49 139t-133 54v33h438v-33q-84 -14 -133 -53t-49 -140v-706q0 -283 -140.5 -425.5t-369.5 -142.5q-148 0 -276 61.5t-207.5 201t-79.5 358.5v653 q0 100 -44 139t-120 54zM399 1606l235 313h218l235 -313h-51l-293 174l-295 -174h-49z" />
<glyph unicode="&#xdc;" horiz-adv-x="1396" d="M-6 1442v33h647v-33q-76 -14 -121 -53t-45 -140v-684q0 -223 86 -335.5t244 -112.5t255 107.5t97 324.5v700q0 100 -49 139t-133 54v33h438v-33q-84 -14 -133 -53t-49 -140v-706q0 -283 -140.5 -425.5t-369.5 -142.5q-148 0 -276 61.5t-207.5 201t-79.5 358.5v653 q0 100 -44 139t-120 54zM366 1727q0 65 46.5 110t109.5 45q66 0 111 -45t45 -110q0 -63 -45 -109.5t-111 -46.5q-63 0 -109.5 46t-46.5 110zM809 1727q0 66 46 110.5t109 44.5q66 0 111 -45t45 -110q0 -63 -45 -109.5t-111 -46.5q-63 0 -109 46t-46 110z" />
<glyph unicode="&#xdd;" horiz-adv-x="1419" d="M-49 1442v33h678v-35q-55 -8 -88 -27.5t-33 -64.5q0 -35 27 -88l286 -570l303 578q27 51 27 86q0 41 -32 59.5t-87 28.5v33h438v-33q-80 -14 -142 -49t-109 -123l-349 -647v-398q0 -100 46.5 -139t123.5 -51v-35h-661v35q78 12 124 51t46 139v398l-348 647 q-47 88 -108.5 122.5t-141.5 49.5zM498 1593l280 367l248 -140v-16l-485 -225z" />
<glyph unicode="&#xde;" horiz-adv-x="1296" d="M25 0v35q78 12 124 51t46 139v1024q0 100 -46.5 139t-123.5 54v33h649v-33q-78 -14 -124 -53t-46 -140v-55h246q143 0 256.5 -58.5t177 -161t63.5 -226.5q0 -145 -72.5 -247t-194.5 -153t-269 -51h-207v-72q0 -100 46 -139t124 -51v-35h-649zM504 369h137 q133 0 206 112.5t73 266.5t-71 263t-202 109h-143v-751z" />
<glyph unicode="&#xdf;" horiz-adv-x="1323" d="M-6 0v35q78 12 124 51t46 139v875q0 225 157.5 320.5t393.5 95.5q184 0 317 -63.5t133 -186.5q0 -80 -48 -126t-140 -96q-68 -35 -99.5 -62.5t-31.5 -66.5q0 -43 38 -78.5t122 -88.5q88 -55 145 -103.5t99 -121t42 -169.5q0 -106 -50 -190t-138 -132t-197 -48 q-158 0 -325 100l4 45q109 -47 192 -47q106 0 158.5 65.5t52.5 147.5q0 78 -40 129t-120 115q-76 61 -112.5 108t-36.5 117q0 66 32.5 118t96.5 119q68 78 100.5 129.5t32.5 120.5q0 88 -61.5 142.5t-165.5 54.5q-250 0 -250 -363v-1085h-471z" />
<glyph unicode="&#xe0;" horiz-adv-x="937" d="M4 264q0 141 112.5 230.5t301.5 89.5q57 0 149 -15v123q0 98 -61.5 149.5t-153.5 51.5q-78 0 -152.5 -39t-133.5 -125l-31 8q37 127 153.5 217t284.5 90q113 0 201 -45t137 -123.5t49 -175.5v-469q0 -98 45 -98q16 0 31 6l14 -12q-18 -59 -74.5 -102t-130.5 -43 q-70 0 -117.5 39.5t-58.5 103.5q-45 -63 -113.5 -103t-156.5 -40q-127 0 -211 79.5t-84 202.5zM172 1374v16l248 140l280 -367l-43 -14zM279 301q0 -80 36.5 -134t108.5 -54q43 0 80 21.5t63 55.5v324q-16 2 -47 2q-113 0 -177 -57.5t-64 -157.5z" />
<glyph unicode="&#xe1;" horiz-adv-x="937" d="M4 264q0 141 112.5 230.5t301.5 89.5q57 0 149 -15v123q0 98 -61.5 149.5t-153.5 51.5q-78 0 -152.5 -39t-133.5 -125l-31 8q37 127 153.5 217t284.5 90q113 0 201 -45t137 -123.5t49 -175.5v-469q0 -98 45 -98q16 0 31 6l14 -12q-18 -59 -74.5 -102t-130.5 -43 q-70 0 -117.5 39.5t-58.5 103.5q-45 -63 -113.5 -103t-156.5 -40q-127 0 -211 79.5t-84 202.5zM221 1161l280 367l248 -140v-16l-485 -225zM279 301q0 -80 36.5 -134t108.5 -54q43 0 80 21.5t63 55.5v324q-16 2 -47 2q-113 0 -177 -57.5t-64 -157.5z" />
<glyph unicode="&#xe2;" horiz-adv-x="937" d="M4 264q0 141 112.5 230.5t301.5 89.5q57 0 149 -15v123q0 98 -61.5 149.5t-153.5 51.5q-78 0 -152.5 -39t-133.5 -125l-31 8q37 127 153.5 217t284.5 90q113 0 201 -45t137 -123.5t49 -175.5v-469q0 -98 45 -98q16 0 31 6l14 -12q-18 -59 -74.5 -102t-130.5 -43 q-70 0 -117.5 39.5t-58.5 103.5q-45 -63 -113.5 -103t-156.5 -40q-127 0 -211 79.5t-84 202.5zM123 1157l233 309h213l232 -309h-49l-289 172l-291 -172h-49zM279 301q0 -80 36.5 -134t108.5 -54q43 0 80 21.5t63 55.5v324q-16 2 -47 2q-113 0 -177 -57.5t-64 -157.5z" />
<glyph unicode="&#xe3;" horiz-adv-x="937" d="M4 264q0 141 112.5 230.5t301.5 89.5q57 0 149 -15v123q0 98 -61.5 149.5t-153.5 51.5q-78 0 -152.5 -39t-133.5 -125l-31 8q37 127 153.5 217t284.5 90q113 0 201 -45t137 -123.5t49 -175.5v-469q0 -98 45 -98q16 0 31 6l14 -12q-18 -59 -74.5 -102t-130.5 -43 q-70 0 -117.5 39.5t-58.5 103.5q-45 -63 -113.5 -103t-156.5 -40q-127 0 -211 79.5t-84 202.5zM115 1200q2 59 26.5 116.5t71.5 95.5t113 38q39 0 74.5 -11.5t82.5 -33.5q86 -43 142 -43q51 0 98 28.5t82 92.5h18q-6 -139 -69.5 -206t-151.5 -67q-39 0 -72.5 11.5 t-93.5 35.5q-43 20 -75.5 31.5t-65.5 11.5q-98 0 -160 -100h-20zM279 301q0 -80 36.5 -134t108.5 -54q43 0 80 21.5t63 55.5v324q-16 2 -47 2q-113 0 -177 -57.5t-64 -157.5z" />
<glyph unicode="&#xe4;" horiz-adv-x="937" d="M4 264q0 141 112.5 230.5t301.5 89.5q57 0 149 -15v123q0 98 -61.5 149.5t-153.5 51.5q-78 0 -152.5 -39t-133.5 -125l-31 8q37 127 153.5 217t284.5 90q113 0 201 -45t137 -123.5t49 -175.5v-469q0 -98 45 -98q16 0 31 6l14 -12q-18 -59 -74.5 -102t-130.5 -43 q-70 0 -117.5 39.5t-58.5 103.5q-45 -63 -113.5 -103t-156.5 -40q-127 0 -211 79.5t-84 202.5zM86 1280q0 65 46.5 110t109.5 45q66 0 111 -45t45 -110q0 -63 -45 -109.5t-111 -46.5q-63 0 -109.5 46t-46.5 110zM279 301q0 -80 36.5 -134t108.5 -54q43 0 80 21.5t63 55.5 v324q-16 2 -47 2q-113 0 -177 -57.5t-64 -157.5zM529 1280q0 66 46 110.5t109 44.5q66 0 111 -45t45 -110q0 -63 -45 -109.5t-111 -46.5q-63 0 -109 46t-46 110z" />
<glyph unicode="&#xe5;" horiz-adv-x="937" d="M4 264q0 141 112.5 230.5t301.5 89.5q57 0 149 -15v123q0 98 -61.5 149.5t-153.5 51.5q-78 0 -152.5 -39t-133.5 -125l-31 8q37 127 153.5 217t284.5 90q113 0 201 -45t137 -123.5t49 -175.5v-469q0 -98 45 -98q16 0 31 6l14 -12q-18 -59 -74.5 -102t-130.5 -43 q-70 0 -117.5 39.5t-58.5 103.5q-45 -63 -113.5 -103t-156.5 -40q-127 0 -211 79.5t-84 202.5zM265 1354q0 80 58 137t138 57q82 0 139.5 -56t59.5 -138q-2 -82 -59.5 -138.5t-139.5 -56.5q-80 0 -138 57.5t-58 137.5zM279 301q0 -80 36.5 -134t108.5 -54q43 0 80 21.5 t63 55.5v324q-16 2 -47 2q-113 0 -177 -57.5t-64 -157.5zM344 1354q0 -49 35 -85t82 -36q49 0 84 36t35 85t-35 85t-84 36q-47 0 -82 -36t-35 -85z" />
<glyph unicode="&#xe6;" horiz-adv-x="1536" d="M4 274q0 94 53.5 169t147.5 117t215 42q66 0 147 -16v121q0 88 -64.5 139t-156.5 51q-76 0 -150.5 -41t-129.5 -127l-33 8q39 129 155.5 218t284.5 89q172 0 281 -98q125 100 307 101q154 0 256 -71t151.5 -185.5t47.5 -249.5h-633q10 -197 96 -297.5t213 -100.5 q78 0 153.5 38t141.5 114l26 -6q-27 -74 -86 -144.5t-150 -116.5t-204 -46q-117 0 -224.5 51t-174.5 149q-59 -88 -148.5 -144t-201.5 -56q-91 0 -163.5 37.5t-114.5 104t-42 150.5zM279 317q0 -94 47 -144t125 -50q111 0 188 113q-31 61 -49 135q-23 55 -23 137v24 q-14 2 -43 3q-119 0 -182 -58.5t-63 -159.5zM883 606h340q0 143 -40 259t-124 116q-86 0 -129 -119t-47 -256z" />
<glyph unicode="&#xe7;" horiz-adv-x="929" d="M6 514q0 160 67.5 279.5t185.5 184t269 66.5q88 0 180.5 -23.5t174.5 -62.5l2 -294h-35q-66 162 -135.5 231.5t-153.5 69.5q-119 0 -180.5 -112t-61.5 -284q4 -193 85 -313.5t221 -120.5q86 0 157.5 46t120.5 114l27 -6q-39 -119 -148.5 -211t-267.5 -98l-51 -72 q94 -10 151.5 -53t57.5 -111q0 -63 -47 -98t-123 -37q-117 0 -203 76v47q63 -39 111 -39q33 0 51 17.5t18 45.5q0 41 -36.5 65.5t-98.5 31.5l88 131q-115 14 -211 78.5t-155.5 179t-59.5 272.5z" />
<glyph unicode="&#xe8;" horiz-adv-x="976" d="M14 514q0 164 60.5 284t171 183t254.5 63q154 0 256 -70.5t151 -185t47 -249.5h-632q10 -197 96 -297.5t213 -100.5q78 0 153.5 38t141.5 114l26 -6q-27 -74 -86 -144.5t-150 -116.5t-204 -46q-127 0 -240.5 60t-185.5 181t-72 293zM211 1364v16l248 140l280 -367 l-43 -14zM322 604h340q0 143 -40 259t-124 116q-86 0 -129 -119t-47 -256z" />
<glyph unicode="&#xe9;" horiz-adv-x="976" d="M14 514q0 164 60.5 284t171 183t254.5 63q154 0 256 -70.5t151 -185t47 -249.5h-632q10 -197 96 -297.5t213 -100.5q78 0 153.5 38t141.5 114l26 -6q-27 -74 -86 -144.5t-150 -116.5t-204 -46q-127 0 -240.5 60t-185.5 181t-72 293zM260 1151l280 367l248 -140v-16 l-485 -225zM322 604h340q0 143 -40 259t-124 116q-86 0 -129 -119t-47 -256z" />
<glyph unicode="&#xea;" horiz-adv-x="976" d="M14 514q0 164 60.5 284t171 183t254.5 63q154 0 256 -70.5t151 -185t47 -249.5h-632q10 -197 96 -297.5t213 -100.5q78 0 153.5 38t141.5 114l26 -6q-27 -74 -86 -144.5t-150 -116.5t-204 -46q-127 0 -240.5 60t-185.5 181t-72 293zM162 1147l233 309h213l232 -309h-49 l-289 172l-291 -172h-49zM322 604h340q0 143 -40 259t-124 116q-86 0 -129 -119t-47 -256z" />
<glyph unicode="&#xeb;" horiz-adv-x="976" d="M14 514q0 164 60.5 284t171 183t254.5 63q154 0 256 -70.5t151 -185t47 -249.5h-632q10 -197 96 -297.5t213 -100.5q78 0 153.5 38t141.5 114l26 -6q-27 -74 -86 -144.5t-150 -116.5t-204 -46q-127 0 -240.5 60t-185.5 181t-72 293zM122 1270q0 65 46.5 110t109.5 45 q66 0 111 -45t45 -110q0 -63 -45 -109.5t-111 -46.5q-63 0 -109.5 46t-46.5 110zM322 604h340q0 143 -40 259t-124 116q-86 0 -129 -119t-47 -256zM565 1270q0 66 46 110.5t109 44.5q66 0 111 -45t45 -110q0 -63 -45 -109.5t-111 -46.5q-63 0 -109 46t-46 110z" />
<glyph unicode="&#xec;" horiz-adv-x="589" d="M-14 1391v16l243 137l277 -360l-43 -15zM4 0v31q66 12 107 49t41 131v610q0 94 -41 131t-107 49v31h442v-821q0 -94 41 -131t107 -49v-31h-590z" />
<glyph unicode="&#xed;" horiz-adv-x="589" d="M4 0v31q66 12 107 49t41 131v610q0 94 -41 131t-107 49v31h442v-821q0 -94 41 -131t107 -49v-31h-590zM33 1182l276 362l246 -137v-16l-479 -224z" />
<glyph unicode="&#xee;" horiz-adv-x="589" d="M-61 1178l227 305h211l229 -305h-49l-285 170l-286 -170h-47zM4 0v31q66 12 107 49t41 131v610q0 94 -41 131t-107 49v31h442v-821q0 -94 41 -131t107 -49v-31h-590z" />
<glyph unicode="&#xef;" horiz-adv-x="514" d="M-100 1298q0 66 44 110t109 44q63 0 108.5 -45t45.5 -109q0 -63 -45 -108t-109 -45q-63 0 -108 45t-45 108zM4 0v31q66 12 107 49t41 131v610q0 94 -41 131t-107 49v31h442v-821q0 -94 41 -131t107 -49v-31h-590zM336 1298q0 66 45 110t108 44t108.5 -45t45.5 -109 q0 -63 -45 -108t-109 -45q-63 0 -108 45t-45 108z" />
<glyph unicode="&#xf0;" horiz-adv-x="1054" d="M6 487q0 154 72 267.5t184.5 173t233.5 59.5q111 0 190 -61q-49 225 -182 356l-266 -188l-2 84l215 153q-125 96 -299 123l24 37q207 -6 379 -86l270 190l2 -84l-200 -143q193 -109 306.5 -299t113.5 -436q0 -281 -127 -455t-351 -198q-31 -6 -65 -7q-129 0 -244 61.5 t-184.5 179.5t-69.5 273zM313 487q0 -172 49.5 -311t141.5 -139t142 140t50 310q0 168 -50 303.5t-142 135.5t-141.5 -135.5t-49.5 -303.5z" />
<glyph unicode="&#xf1;" horiz-adv-x="1187" d="M-14 0v31q63 12 102 49t39 131v610q0 94 -39 131t-102 49v31h440v-186q49 88 132 143t190 55q86 0 158.5 -37.5t116.5 -113.5t44 -180v-502q0 -94 39 -131t102 -49v-31h-557v31q53 12 86 49t33 131v461q0 96 -47 141t-119 45q-94 0 -178 -74v-573q0 -94 31.5 -131 t85.5 -49v-31h-557zM238 1190q2 59 26.5 116.5t71.5 95.5t113 38q39 0 74.5 -11.5t82.5 -33.5q86 -43 142 -43q51 0 98 28.5t82 92.5h18q-6 -139 -69.5 -206t-151.5 -67q-39 0 -72.5 11.5t-93.5 35.5q-43 20 -75.5 31.5t-65.5 11.5q-98 0 -160 -100h-20z" />
<glyph unicode="&#xf2;" d="M6 518q0 164 74 283t193.5 181t256.5 62q135 0 256 -62t196 -182t75 -282q0 -164 -75 -285.5t-195.5 -187t-256.5 -65.5q-137 0 -256.5 65.5t-193.5 187t-74 285.5zM240 1360v16l248 140l280 -367l-43 -14zM330 518q0 -190 46 -331.5t154 -141.5q106 0 154.5 142.5 t48.5 330.5q0 184 -48 322.5t-155 138.5q-109 0 -154.5 -137t-45.5 -324z" />
<glyph unicode="&#xf3;" d="M6 518q0 164 74 283t193.5 181t256.5 62q135 0 256 -62t196 -182t75 -282q0 -164 -75 -285.5t-195.5 -187t-256.5 -65.5q-137 0 -256.5 65.5t-193.5 187t-74 285.5zM289 1147l280 367l248 -140v-16l-485 -225zM330 518q0 -190 46 -331.5t154 -141.5q106 0 154.5 142.5 t48.5 330.5q0 184 -48 322.5t-155 138.5q-109 0 -154.5 -137t-45.5 -324z" />
<glyph unicode="&#xf4;" d="M6 518q0 164 74 283t193.5 181t256.5 62q135 0 256 -62t196 -182t75 -282q0 -164 -75 -285.5t-195.5 -187t-256.5 -65.5q-137 0 -256.5 65.5t-193.5 187t-74 285.5zM186 1145l235 313h218l235 -313h-51l-293 174l-295 -174h-49zM330 518q0 -190 46 -331.5t154 -141.5 q106 0 154.5 142.5t48.5 330.5q0 184 -48 322.5t-155 138.5q-109 0 -154.5 -137t-45.5 -324z" />
<glyph unicode="&#xf5;" d="M6 518q0 164 74 283t193.5 181t256.5 62q135 0 256 -62t196 -182t75 -282q0 -164 -75 -285.5t-195.5 -187t-256.5 -65.5q-137 0 -256.5 65.5t-193.5 187t-74 285.5zM183 1186q2 59 26.5 116.5t71.5 95.5t113 38q39 0 74.5 -11.5t82.5 -33.5q86 -43 142 -43q51 0 98 28.5 t82 92.5h18q-6 -139 -69.5 -206t-151.5 -67q-39 0 -72.5 11.5t-93.5 35.5q-43 20 -75.5 31.5t-65.5 11.5q-98 0 -160 -100h-20zM330 518q0 -190 46 -331.5t154 -141.5q106 0 154.5 142.5t48.5 330.5q0 184 -48 322.5t-155 138.5q-109 0 -154.5 -137t-45.5 -324z" />
<glyph unicode="&#xf6;" d="M6 518q0 164 74 283t193.5 181t256.5 62q135 0 256 -62t196 -182t75 -282q0 -164 -75 -285.5t-195.5 -187t-256.5 -65.5q-137 0 -256.5 65.5t-193.5 187t-74 285.5zM153 1266q0 65 46.5 110t109.5 45q66 0 111 -45t45 -110q0 -63 -45 -109.5t-111 -46.5q-63 0 -109.5 46 t-46.5 110zM330 518q0 -190 46 -331.5t154 -141.5q106 0 154.5 142.5t48.5 330.5q0 184 -48 322.5t-155 138.5q-109 0 -154.5 -137t-45.5 -324zM596 1266q0 66 46 110.5t109 44.5q66 0 111 -45t45 -110q0 -63 -45 -109.5t-111 -46.5q-63 0 -109 46t-46 110z" />
<glyph unicode="&#xf7;" d="M72 645v68h921v-68h-921zM412 326q0 47 34.5 82.5t81.5 35.5t82 -35.5t35 -82.5t-35 -83t-82 -36t-81.5 36t-34.5 83zM412 1030q0 47 34.5 83t81.5 36t82 -36t35 -83t-35 -83t-82 -36t-81.5 36t-34.5 83z" />
<glyph unicode="&#xf8;" d="M6 518q0 164 74 283t193.5 181t256.5 62q131 0 244 -57l105 164h92l-129 -203q100 -70 157.5 -179.5t57.5 -250.5q0 -164 -75 -285.5t-195.5 -187t-256.5 -65.5q-139 0 -262 67l-112 -174h-93l140 219q-92 70 -144.5 179.5t-52.5 246.5zM330 518q0 -111 14 -205l340 531 q-55 135 -154 135q-109 0 -154.5 -137t-45.5 -324zM369 207q52 -162 161 -162q106 0 154.5 142.5t48.5 330.5q0 125 -20 227z" />
<glyph unicode="&#xf9;" horiz-adv-x="1236" d="M6 1001v31h438v-672q0 -96 47.5 -141t120.5 -45q47 0 94.5 19.5t86.5 54.5v573q0 94 -32 131t-85 49v31h416v-821q0 -94 38.5 -131t102.5 -49v-31h-356q-53 70 -82 174q-55 -84 -140.5 -135t-187.5 -51q-86 0 -158.5 37.5t-117 113.5t-44.5 180v502q0 94 -38.5 131 t-102.5 49zM293 1364v16l248 140l280 -367l-43 -14z" />
<glyph unicode="&#xfa;" horiz-adv-x="1236" d="M6 1001v31h438v-672q0 -96 47.5 -141t120.5 -45q47 0 94.5 19.5t86.5 54.5v573q0 94 -32 131t-85 49v31h416v-821q0 -94 38.5 -131t102.5 -49v-31h-356q-53 70 -82 174q-55 -84 -140.5 -135t-187.5 -51q-86 0 -158.5 37.5t-117 113.5t-44.5 180v502q0 94 -38.5 131 t-102.5 49zM342 1151l280 367l248 -140v-16l-485 -225z" />
<glyph unicode="&#xfb;" horiz-adv-x="1236" d="M6 1001v31h438v-672q0 -96 47.5 -141t120.5 -45q47 0 94.5 19.5t86.5 54.5v573q0 94 -32 131t-85 49v31h416v-821q0 -94 38.5 -131t102.5 -49v-31h-356q-53 70 -82 174q-55 -84 -140.5 -135t-187.5 -51q-86 0 -158.5 37.5t-117 113.5t-44.5 180v502q0 94 -38.5 131 t-102.5 49zM244 1147l233 309h213l232 -309h-50l-288 172l-291 -172h-49z" />
<glyph unicode="&#xfc;" horiz-adv-x="1236" d="M6 1001v31h438v-672q0 -96 47.5 -141t120.5 -45q47 0 94.5 19.5t86.5 54.5v573q0 94 -32 131t-85 49v31h416v-821q0 -94 38.5 -131t102.5 -49v-31h-356q-53 70 -82 174q-55 -84 -140.5 -135t-187.5 -51q-86 0 -158.5 37.5t-117 113.5t-44.5 180v502q0 94 -38.5 131 t-102.5 49zM206 1270q0 65 46.5 110t109.5 45q66 0 111 -45t45 -110q0 -63 -45 -109.5t-111 -46.5q-63 0 -109.5 46t-46.5 110zM649 1270q0 66 46 110.5t109 44.5q66 0 111 -45t45 -110q0 -63 -45 -109.5t-111 -46.5q-63 0 -109 46t-46 110z" />
<glyph unicode="&#xfd;" horiz-adv-x="1103" d="M-16 1001v31h551v-31q-47 -10 -73 -27.5t-26 -60.5q0 -31 19 -79l207 -531l212 531q18 47 19 75q0 43 -31 62.5t-84 29.5v31h352v-31q-51 -12 -94 -45.5t-80 -121.5l-389 -953q-63 -156 -145 -231.5t-186 -75.5q-86 0 -193 53l37 223l26 17q100 -63 205 -64q70 0 121 30 t74 83l4 12l-371 906q-35 88 -72.5 121.5t-82.5 45.5zM340 1151l280 367l248 -140v-16l-485 -225z" />
<glyph unicode="&#xfe;" horiz-adv-x="1091" d="M-41 1442l145 22l306 52v-617q53 68 127.5 106.5t164.5 38.5q106 0 193.5 -57t139.5 -174t52 -287q0 -172 -62 -296t-166.5 -186t-229.5 -62q-117 0 -219 57v-258q0 -94 41 -131t106 -49v-31h-590v31q66 12 106 49t40 131v1474q0 94 -41 124t-107 30zM410 346l2 2 q4 -293 166 -293q88 0 139 92.5t51 282.5q0 479 -207 479q-84 0 -151 -82v-481z" />
<glyph unicode="&#xff;" horiz-adv-x="1103" d="M-16 1001v31h551v-31q-47 -10 -73 -27.5t-26 -60.5q0 -31 19 -79l207 -531l212 531q18 47 19 75q0 43 -31 62.5t-84 29.5v31h352v-31q-51 -12 -94 -45.5t-80 -121.5l-389 -953q-63 -156 -145 -231.5t-186 -75.5q-86 0 -193 53l37 223l26 17q100 -63 205 -64q70 0 121 30 t74 83l4 12l-371 906q-35 88 -72.5 121.5t-82.5 45.5zM202 1270q0 65 46.5 110t109.5 45q66 0 111 -45t45 -110q0 -63 -45 -109.5t-111 -46.5q-63 0 -109.5 46t-46.5 110zM645 1270q0 66 46 110.5t109 44.5q66 0 111 -45t45 -110q0 -63 -45 -109.5t-111 -46.5q-63 0 -109 46 t-46 110z" />
<glyph unicode="&#x2000;" horiz-adv-x="990" />
<glyph unicode="&#x2001;" horiz-adv-x="1980" />
<glyph unicode="&#x2002;" horiz-adv-x="990" />
<glyph unicode="&#x2003;" horiz-adv-x="1980" />
<glyph unicode="&#x2004;" horiz-adv-x="660" />
<glyph unicode="&#x2005;" horiz-adv-x="495" />
<glyph unicode="&#x2006;" horiz-adv-x="330" />
<glyph unicode="&#x2007;" horiz-adv-x="330" />
<glyph unicode="&#x2008;" horiz-adv-x="247" />
<glyph unicode="&#x2009;" horiz-adv-x="396" />
<glyph unicode="&#x200a;" horiz-adv-x="110" />
<glyph unicode="&#x2010;" horiz-adv-x="921" d="M68 606v70h786v-70h-786z" />
<glyph unicode="&#x2011;" horiz-adv-x="921" d="M68 606v70h786v-70h-786z" />
<glyph unicode="&#x2012;" horiz-adv-x="921" d="M68 606v70h786v-70h-786z" />
<glyph unicode="&#x2013;" horiz-adv-x="1159" d="M68 606v70h1024v-70h-1024z" />
<glyph unicode="&#x2014;" horiz-adv-x="2183" d="M68 606v70h2048v-70h-2048z" />
<glyph unicode="&#x202f;" horiz-adv-x="396" />
<glyph unicode="&#x205f;" horiz-adv-x="495" />
<glyph unicode="&#x25fc;" horiz-adv-x="1034" d="M0 0v1034h1034v-1034h-1034z" />
</font>
</defs>
</svg>
